<svg width="133" height="37" viewBox="0 0 133 37" fill="none" xmlns="http://www.w3.org/2000/svg">
<path d="M21.456 29.52V36H0.384V1.032H8.496V29.52H21.456ZM59.079 18.504C59.079 21.032 58.639 23.384 57.759 25.56C56.895 27.736 55.671 29.632 54.087 31.248C52.503 32.848 50.591 34.104 48.351 35.016C46.127 35.928 43.655 36.384 40.935 36.384C38.215 36.384 35.735 35.928 33.495 35.016C31.255 34.104 29.335 32.848 27.735 31.248C26.151 29.632 24.919 27.736 24.039 25.56C23.175 23.384 22.743 21.032 22.743 18.504C22.743 15.976 23.175 13.624 24.039 11.448C24.919 9.272 26.151 7.384 27.735 5.784C29.335 4.184 31.255 2.928 33.495 2.016C35.735 1.104 38.215 0.647999 40.935 0.647999C43.655 0.647999 46.127 1.112 48.351 2.04C50.591 2.952 52.503 4.208 54.087 5.808C55.671 7.408 56.895 9.296 57.759 11.472C58.639 13.648 59.079 15.992 59.079 18.504ZM50.775 18.504C50.775 16.776 50.551 15.224 50.103 13.848C49.655 12.456 49.007 11.28 48.159 10.32C47.327 9.36 46.303 8.624 45.087 8.112C43.871 7.6 42.487 7.344 40.935 7.344C39.367 7.344 37.967 7.6 36.735 8.112C35.519 8.624 34.487 9.36 33.639 10.32C32.807 11.28 32.167 12.456 31.719 13.848C31.271 15.224 31.047 16.776 31.047 18.504C31.047 20.248 31.271 21.816 31.719 23.208C32.167 24.584 32.807 25.752 33.639 26.712C34.487 27.672 35.519 28.408 36.735 28.92C37.967 29.416 39.367 29.664 40.935 29.664C42.487 29.664 43.871 29.416 45.087 28.92C46.303 28.408 47.327 27.672 48.159 26.712C49.007 25.752 49.655 24.584 50.103 23.208C50.551 21.816 50.775 20.248 50.775 18.504ZM80.6528 17.88H93.0848V32.64C91.2928 33.952 89.3808 34.904 87.3488 35.496C85.3328 36.088 83.2208 36.384 81.0128 36.384C78.1328 36.384 75.5088 35.936 73.1407 35.04C70.7888 34.128 68.7728 32.88 67.0928 31.296C65.4128 29.696 64.1168 27.808 63.2048 25.632C62.2928 23.44 61.8368 21.064 61.8368 18.504C61.8368 15.896 62.2688 13.504 63.1328 11.328C63.9968 9.136 65.2288 7.248 66.8288 5.664C68.4448 4.08 70.3888 2.848 72.6608 1.968C74.9488 1.088 77.5008 0.647999 80.3168 0.647999C81.7728 0.647999 83.1408 0.767999 84.4208 1.008C85.7008 1.248 86.8768 1.576 87.9488 1.992C89.0368 2.408 90.0288 2.904 90.9248 3.48C91.8208 4.056 92.6208 4.68 93.3248 5.352L90.9728 8.928C90.6048 9.488 90.1248 9.832 89.5328 9.96C88.9568 10.088 88.3328 9.944 87.6608 9.528C87.0208 9.144 86.4128 8.816 85.8368 8.544C85.2768 8.256 84.7008 8.024 84.1088 7.848C83.5168 7.672 82.8928 7.544 82.2368 7.464C81.5808 7.384 80.8448 7.344 80.0288 7.344C78.5088 7.344 77.1408 7.616 75.9248 8.16C74.7088 8.688 73.6688 9.44 72.8047 10.416C71.9568 11.392 71.3008 12.568 70.8368 13.944C70.3728 15.304 70.1408 16.824 70.1408 18.504C70.1408 20.36 70.3968 22.008 70.9088 23.448C71.4208 24.888 72.1408 26.104 73.0688 27.096C74.0128 28.088 75.1328 28.848 76.4288 29.376C77.7408 29.888 79.1888 30.144 80.7728 30.144C81.7488 30.144 82.6288 30.048 83.4128 29.856C84.2128 29.664 84.9888 29.408 85.7408 29.088V23.784H82.2848C81.7728 23.784 81.3728 23.648 81.0848 23.376C80.7968 23.104 80.6528 22.76 80.6528 22.344V17.88ZM132.86 18.504C132.86 21.032 132.42 23.384 131.54 25.56C130.676 27.736 129.452 29.632 127.868 31.248C126.284 32.848 124.372 34.104 122.132 35.016C119.908 35.928 117.436 36.384 114.716 36.384C111.996 36.384 109.516 35.928 107.276 35.016C105.036 34.104 103.116 32.848 101.516 31.248C99.9323 29.632 98.7003 27.736 97.8203 25.56C96.9563 23.384 96.5243 21.032 96.5243 18.504C96.5243 15.976 96.9563 13.624 97.8203 11.448C98.7003 9.272 99.9323 7.384 101.516 5.784C103.116 4.184 105.036 2.928 107.276 2.016C109.516 1.104 111.996 0.647999 114.716 0.647999C117.436 0.647999 119.908 1.112 122.132 2.04C124.372 2.952 126.284 4.208 127.868 5.808C129.452 7.408 130.676 9.296 131.54 11.472C132.42 13.648 132.86 15.992 132.86 18.504ZM124.556 18.504C124.556 16.776 124.332 15.224 123.884 13.848C123.436 12.456 122.788 11.28 121.94 10.32C121.108 9.36 120.084 8.624 118.868 8.112C117.652 7.6 116.268 7.344 114.716 7.344C113.148 7.344 111.748 7.6 110.516 8.112C109.3 8.624 108.268 9.36 107.42 10.32C106.588 11.28 105.948 12.456 105.5 13.848C105.052 15.224 104.828 16.776 104.828 18.504C104.828 20.248 105.052 21.816 105.5 23.208C105.948 24.584 106.588 25.752 107.42 26.712C108.268 27.672 109.3 28.408 110.516 28.92C111.748 29.416 113.148 29.664 114.716 29.664C116.268 29.664 117.652 29.416 118.868 28.92C120.084 28.408 121.108 27.672 121.94 26.712C122.788 25.752 123.436 24.584 123.884 23.208C124.332 21.816 124.556 20.248 124.556 18.504Z" fill="#F3F3F3"/>
</svg>
